<?xml version="1.0" standalone="no"?>
<svg xmlns="http://www.w3.org/2000/svg" xmlns:xlink="http://www.w3.org/1999/xlink" width="364pt" height="44pt" viewBox="0.00 0.00 363.92 44">
<g id="graph0" class="graph" transform="translate(4,40) scale(1)" data-name="G">

<polygon fill="white" stroke="none" points="-4,4 -4,-40 359.92,-40 359.92,4 -4,4"/>
<!-- scraper -->
<g id="node1" class="node" pointer-events="visible" data-name="Scraper" data-comment="scraper">

<ellipse fill="none" stroke="black" cx="40.53" cy="-18" rx="40.55" ry="18"/>
<text text-anchor="middle" x="40.53" y="-13.8" font-family="Times,serif" font-size="14.00">Scraper</text>
</g>
<!-- Datahandler -->
<g id="node2" class="node" pointer-events="visible" data-name="Datahandler">

<ellipse fill="rgb(144, 238, 144)" stroke="black" cx="175.27" cy="-18" rx="58.45" ry="18"/>
<text text-anchor="middle" x="175.27" y="-13.8" font-family="Times,serif" font-size="14.00">Datahandler</text>
</g>
<!-- scraper&#45;&gt;Datahandler -->
<g id="edge1" class="edge" data-name="Scraper-&gt;Datahandler" data-comment="scraper-&gt;Datahandler">

<path fill="none" stroke="black" d="M81.35,-18C89.02,-18 97.25,-18 105.53,-18"/>
<polygon fill="black" stroke="black" points="105.29,-21.5 115.29,-18 105.29,-14.5 105.29,-21.5"/>
</g>
<!-- Matcher -->
<g id="node3" class="node" pointer-events="visible" data-name="Matcher">

<ellipse fill="none" stroke="black" cx="312.71" cy="-18" rx="43.42" ry="18"/>
<text text-anchor="middle" x="312.71" y="-13.8" font-family="Times,serif" font-size="14.00">Matcher</text>
</g>
<!-- Datahandler&#45;&gt;Matcher -->
<g id="edge2" class="edge" data-name="Datahandler-&gt;Matcher">

<path fill="none" stroke="black" d="M234.1,-18C241.84,-18 249.75,-18 257.42,-18"/>
<polygon fill="black" stroke="black" points="257.31,-21.5 267.31,-18 257.31,-14.5 257.31,-21.5"/>
</g>
</g>
</svg>