<?xml version="1.0" standalone="no"?>
<svg xmlns="http://www.w3.org/2000/svg" xmlns:xlink="http://www.w3.org/1999/xlink" width="379pt" height="44pt" viewBox="0.00 0.00 378.95 44">
<g id="graph0" class="graph" transform="translate(4,40) scale(1)" data-name="G">

<polygon fill="white" stroke="none" points="-4,4 -4,-40 374.95,-40 374.95,4 -4,4"/>
<!-- Scraper -->
<g id="node1" class="node" pointer-events="visible" data-name="Scrapers" data-comment="Scraper">

<ellipse fill="none" stroke="black" cx="44.28" cy="-18" rx="44.07" ry="18"/>
<text text-anchor="middle" x="44.28" y="-13.8" font-family="Times,serif" font-size="14.00">Scrapers</text>
</g>
<!-- Datahandler -->
<g id="node2" class="node" pointer-events="visible" data-name="Datahandler">

<ellipse fill="none" stroke="black" cx="182.79" cy="-18" rx="58.45" ry="18"/>
<text text-anchor="middle" x="182.79" y="-13.8" font-family="Times,serif" font-size="14.00">Datahandler</text>
</g>
<!-- Scraper&#45;&gt;Datahandler -->
<g id="edge1" class="edge" data-name="Scrapers-&gt;Datahandler" data-comment="Scraper-&gt;Datahandler">

<path fill="none" stroke="black" d="M88.48,-18C96.12,-18 104.25,-18 112.41,-18"/>
<polygon fill="black" stroke="black" points="112.39,-21.5 122.39,-18 112.39,-14.5 112.39,-21.5"/>
</g>
<!-- Matcher -->
<g id="node3" class="node" pointer-events="visible" data-name="Matchers" data-comment="Matcher">

<ellipse fill="none" stroke="black" cx="323.98" cy="-18" rx="46.93" ry="18"/>
<text text-anchor="middle" x="323.98" y="-13.8" font-family="Times,serif" font-size="14.00">Matchers</text>
</g>
<!-- Datahandler&#45;&gt;Matcher -->
<g id="edge2" class="edge" data-name="Datahandler-&gt;Matchers" data-comment="Datahandler-&gt;Matcher">

<path fill="none" stroke="black" d="M241.61,-18C249.44,-18 257.47,-18 265.3,-18"/>
<polygon fill="black" stroke="black" points="265.06,-21.5 275.06,-18 265.06,-14.5 265.06,-21.5"/>
</g>
</g>
</svg>